<mxfile host="65bd71144e">
    <diagram id="PvlTUjPj0u4iXz4PkVxB" name="Page-1">
        <mxGraphModel dx="886" dy="779" grid="1" gridSize="10" guides="1" tooltips="1" connect="1" arrows="1" fold="1" page="1" pageScale="1" pageWidth="850" pageHeight="1100" math="0" shadow="0">
            <root>
                <mxCell id="0"/>
                <mxCell id="1" parent="0"/>
                <mxCell id="61" value="" style="whiteSpace=wrap;html=1;" vertex="1" parent="1">
                    <mxGeometry x="560" y="310" width="380" height="520" as="geometry"/>
                </mxCell>
                <mxCell id="2" value="Short URL Service" style="whiteSpace=wrap;html=1;" vertex="1" parent="1">
                    <mxGeometry x="335" y="475" width="150" height="120" as="geometry"/>
                </mxCell>
                <mxCell id="3" value="Short URL Service" style="whiteSpace=wrap;html=1;" vertex="1" parent="1">
                    <mxGeometry x="345" y="485" width="150" height="120" as="geometry"/>
                </mxCell>
                <mxCell id="4" value="Short URL Service" style="whiteSpace=wrap;html=1;" vertex="1" parent="1">
                    <mxGeometry x="355" y="495" width="150" height="120" as="geometry"/>
                </mxCell>
                <mxCell id="11" style="edgeStyle=none;html=1;exitX=1;exitY=1;exitDx=0;exitDy=0;entryX=0;entryY=0.5;entryDx=0;entryDy=0;" edge="1" parent="1" source="5" target="10">
                    <mxGeometry relative="1" as="geometry"/>
                </mxCell>
                <mxCell id="28" style="edgeStyle=none;html=1;startArrow=none;" edge="1" parent="1" source="27" target="26">
                    <mxGeometry relative="1" as="geometry"/>
                </mxCell>
                <mxCell id="64" style="edgeStyle=none;html=1;" edge="1" parent="1" source="5" target="8">
                    <mxGeometry relative="1" as="geometry"/>
                </mxCell>
                <mxCell id="65" style="edgeStyle=none;html=1;" edge="1" parent="1" source="5" target="63">
                    <mxGeometry relative="1" as="geometry"/>
                </mxCell>
                <mxCell id="5" value="Short URL Service" style="whiteSpace=wrap;html=1;" vertex="1" parent="1">
                    <mxGeometry x="365" y="505" width="150" height="120" as="geometry"/>
                </mxCell>
                <mxCell id="8" value="Postgres&lt;br&gt;Insertions" style="shape=cylinder3;whiteSpace=wrap;html=1;boundedLbl=1;backgroundOutline=1;size=15;" vertex="1" parent="1">
                    <mxGeometry x="620" y="535" width="60" height="80" as="geometry"/>
                </mxCell>
                <mxCell id="10" value="Distributed Cache" style="whiteSpace=wrap;html=1;" vertex="1" parent="1">
                    <mxGeometry x="620" y="730" width="120" height="60" as="geometry"/>
                </mxCell>
                <mxCell id="30" style="edgeStyle=none;html=1;" edge="1" parent="1" source="26">
                    <mxGeometry relative="1" as="geometry">
                        <mxPoint x="440" y="840" as="targetPoint"/>
                    </mxGeometry>
                </mxCell>
                <mxCell id="26" value="" style="sketch=0;outlineConnect=0;fontColor=#232F3E;gradientColor=none;fillColor=#B0084D;strokeColor=none;dashed=0;verticalLabelPosition=bottom;verticalAlign=top;align=center;html=1;fontSize=12;fontStyle=0;aspect=fixed;pointerEvents=1;shape=mxgraph.aws4.mq_broker;" vertex="1" parent="1">
                    <mxGeometry x="401" y="710" width="78" height="78" as="geometry"/>
                </mxCell>
                <mxCell id="29" value="" style="edgeStyle=none;html=1;endArrow=none;" edge="1" parent="1" source="5" target="27">
                    <mxGeometry relative="1" as="geometry">
                        <mxPoint x="440" y="625" as="sourcePoint"/>
                        <mxPoint x="440" y="714.6250454545454" as="targetPoint"/>
                    </mxGeometry>
                </mxCell>
                <mxCell id="27" value="Message Broker" style="text;html=1;align=center;verticalAlign=middle;resizable=0;points=[];autosize=1;strokeColor=none;fillColor=none;" vertex="1" parent="1">
                    <mxGeometry x="385" y="660" width="110" height="30" as="geometry"/>
                </mxCell>
                <mxCell id="55" style="edgeStyle=none;html=1;" edge="1" parent="1" source="31">
                    <mxGeometry relative="1" as="geometry">
                        <mxPoint x="520" y="960" as="targetPoint"/>
                    </mxGeometry>
                </mxCell>
                <mxCell id="58" style="edgeStyle=none;html=1;entryX=1;entryY=0;entryDx=0;entryDy=0;" edge="1" parent="1" source="31" target="57">
                    <mxGeometry relative="1" as="geometry"/>
                </mxCell>
                <mxCell id="31" value="Collector Service" style="whiteSpace=wrap;html=1;" vertex="1" parent="1">
                    <mxGeometry x="380" y="830" width="120" height="60" as="geometry"/>
                </mxCell>
                <mxCell id="52" value="Entity" style="swimlane;childLayout=stackLayout;horizontal=1;startSize=30;horizontalStack=0;rounded=1;fontSize=14;fontStyle=0;strokeWidth=2;resizeParent=0;resizeLast=1;shadow=0;dashed=0;align=center;" vertex="1" parent="1">
                    <mxGeometry x="620" y="340" width="250" height="180" as="geometry"/>
                </mxCell>
                <mxCell id="53" value="+ id UUIDv4                            (36 bytes?)&#10;+ original_url TEXT                 (65,535 bytes)&#10;+ short_url VARCHAR(20)      (6 * 1bytes?)&#10;+ created_at TimestampTZ     (8 bytes)&#10;+ updated_at TimestampTZ    (8 bytes)&#10;&#10;&#10;Maximum size per entry: 65,593 bytes&#10;" style="align=left;strokeColor=none;fillColor=none;spacingLeft=4;fontSize=12;verticalAlign=top;resizable=0;rotatable=0;part=1;" vertex="1" parent="52">
                    <mxGeometry y="30" width="250" height="150" as="geometry"/>
                </mxCell>
                <mxCell id="56" value="Observability Stack&lt;br&gt;(Metrics, Logs, Spans)" style="whiteSpace=wrap;html=1;" vertex="1" parent="1">
                    <mxGeometry x="520" y="960" width="120" height="60" as="geometry"/>
                </mxCell>
                <mxCell id="57" value="BI Squad (Dashboards)" style="whiteSpace=wrap;html=1;" vertex="1" parent="1">
                    <mxGeometry x="245" y="960" width="120" height="60" as="geometry"/>
                </mxCell>
                <mxCell id="59" value="Eviction Policy: LRU&lt;br&gt;Expiration Policy: TTL" style="text;html=1;align=left;verticalAlign=middle;resizable=0;points=[];autosize=1;strokeColor=none;fillColor=none;" vertex="1" parent="1">
                    <mxGeometry x="620" y="790" width="140" height="40" as="geometry"/>
                </mxCell>
                <mxCell id="60" value="&lt;div style=&quot;&quot;&gt;&lt;span style=&quot;background-color: initial;&quot;&gt;Auto managed DB on&amp;nbsp;&lt;/span&gt;&lt;span style=&quot;background-color: initial;&quot;&gt;any cloud provider,&lt;/span&gt;&lt;/div&gt;&lt;div style=&quot;&quot;&gt;&lt;span style=&quot;background-color: initial;&quot;&gt;preferably one that scale horizontaly&lt;/span&gt;&lt;/div&gt;" style="text;html=1;align=center;verticalAlign=middle;resizable=0;points=[];autosize=1;strokeColor=none;fillColor=none;" vertex="1" parent="1">
                    <mxGeometry x="690" y="595" width="240" height="40" as="geometry"/>
                </mxCell>
                <mxCell id="62" value="STORAGE SOLUTION" style="text;html=1;align=center;verticalAlign=middle;resizable=0;points=[];autosize=1;strokeColor=none;fillColor=none;" vertex="1" parent="1">
                    <mxGeometry x="640" y="260" width="150" height="30" as="geometry"/>
                </mxCell>
                <mxCell id="63" value="Postgres&lt;br&gt;Read" style="shape=cylinder3;whiteSpace=wrap;html=1;boundedLbl=1;backgroundOutline=1;size=15;" vertex="1" parent="1">
                    <mxGeometry x="620" y="625" width="60" height="80" as="geometry"/>
                </mxCell>
            </root>
        </mxGraphModel>
    </diagram>
</mxfile>